<svg fill="none" height="20" viewBox="0 0 48 48" width="20" xmlns="http://www.w3.org/2000/svg"><path clip-rule="evenodd" d="m21 15c-.5523 0-1 .4477-1 1v3c0 .5523.4477 1 1 1s1-.4477 1-1v-2h9v14h-9v-2c0-.5523-.4477-1-1-1s-1 .4477-1 1v3c0 .5523.4477 1 1 1h11c.5523 0 1-.4477 1-1v-16c0-.5523-.4477-1-1-1zm4.7071 5.2929c-.3905-.3905-1.0237-.3905-1.4142 0s-.3905 1.0237 0 1.4142l1.2929 1.2929h-9.5858c-.5523 0-1 .4477-1 1s.4477 1 1 1h9.5858l-1.2929 1.2929c-.3905.3905-.3905 1.0237 0 1.4142s1.0237.3905 1.4142 0l3-3c.3905-.3905.3905-1.0237 0-1.4142z" fill="#222" fill-rule="evenodd"/></svg>