<svg height="24" viewBox="0 0 32 32" width="24" xmlns="http://www.w3.org/2000/svg"><path d="m28.8281 3.1719a4.0941 4.0941 0 0 0 -5.6562 0l-19.1219 19.1201a6.9537 6.9537 0 0 0 -2.05 4.9492v2.7588h2.7559a6.9523 6.9523 0 0 0 4.95-2.05l19.1222-19.1214a3.999 3.999 0 0 0 0-5.6567zm-17.9181 15.0881 2.8286 2.8286-2.1214 2.1214-2.8286-2.8282zm-2.6185 8.2756a4.9665 4.9665 0 0 1 -3.5356 1.4644h-.7559v-.7588a4.9671 4.9671 0 0 1 1.4644-3.5351l1.91-1.91 2.8286 2.8281zm19.1226-19.1215-12.2613 12.2607-2.8286-2.8286 12.2617-12.26a2.0473 2.0473 0 0 1 2.8282 0 1.9995 1.9995 0 0 1 0 2.8282z"/><path d="m0 0h32v32h-32z" fill="none"/></svg>